<?xml version="1.0" encoding="utf-8"?>
<!-- Generator: Adobe Illustrator 16.0.3, SVG Export Plug-In . SVG Version: 6.00 Build 0)  -->
<!DOCTYPE svg PUBLIC "-//W3C//DTD SVG 1.1//EN" "http://www.w3.org/Graphics/SVG/1.1/DTD/svg11.dtd">
<svg version="1.1" id="Layer_1" xmlns="http://www.w3.org/2000/svg" xmlns:xlink="http://www.w3.org/1999/xlink" x="0px" y="0px"
	 width="120px" height="120px" viewBox="0 0 120 120" enable-background="new 0 0 120 120" xml:space="preserve">
<g>
	<path fill="#FFFFFF" d="M9.257,73.103L21.403,43.57h3.078l12.104,29.533h-3.993l-3.494-8.651H16.703l-3.453,8.651H9.257z
		 M22.942,47.896l-5.491,13.644h10.815L22.942,47.896z"/>
	<path fill="#FFFFFF" d="M38.622,68.693c1.082,0.749,3.078,1.497,5.449,1.497c5.615,0,6.322-4.076,6.322-11.604V43.611h3.744v14.975
		c0,8.984-1.123,14.975-10.066,14.975c-2.538,0-4.659-0.624-6.406-1.831L38.622,68.693z"/>
	<path fill="#FFFFFF" d="M57.13,73.103L69.276,43.57h3.078l12.104,29.533h-3.993l-3.494-8.651H64.576l-3.452,8.651H57.13z
		 M70.815,47.896l-5.491,13.644H76.14L70.815,47.896z"/>
	<path fill="#FFFFFF" d="M89.116,43.57l8.984,12.312l8.984-12.312h4.118l-11.106,14.974l10.773,14.559h-4.118l-8.651-11.896
		l-8.652,11.896h-4.159l10.773-14.559L84.956,43.57H89.116z"/>
</g>
</svg>
