<?xml version="1.0" encoding="utf-8"?>
<!-- Generator: Adobe Illustrator 16.0.3, SVG Export Plug-In . SVG Version: 6.00 Build 0)  -->
<!DOCTYPE svg PUBLIC "-//W3C//DTD SVG 1.1//EN" "http://www.w3.org/Graphics/SVG/1.1/DTD/svg11.dtd">
<svg version="1.1" id="Layer_1" xmlns="http://www.w3.org/2000/svg" xmlns:xlink="http://www.w3.org/1999/xlink" x="0px" y="0px"
	 width="120px" height="120px" viewBox="0 0 120 120" enable-background="new 0 0 120 120" xml:space="preserve">
<g>
	<polygon fill="#DD0031" points="60,12 60,12 60,12 15.313,27.936 22.128,87.023 60,108 60,108 60,108 97.872,87.023 
		104.688,27.936 	"/>
	<polygon fill="#C3002F" points="60,12 60,22.656 60,22.607 60,71.231 60,71.231 60,108 60,108 97.872,87.023 104.688,27.936 	"/>
	<path fill="#FFFFFF" d="M60,22.607L32.064,85.248l0,0H42.48l0,0l5.615-14.017h23.713l5.615,14.017l0,0H87.84l0,0L60,22.607
		L60,22.607L60,22.607L60,22.607L60,22.607z M68.16,62.592H51.84L60,42.959L68.16,62.592z"/>
</g>
</svg>
