<?xml version="1.0" encoding="utf-8"?>
<!-- Generator: Adobe Illustrator 16.0.3, SVG Export Plug-In . SVG Version: 6.00 Build 0)  -->
<!DOCTYPE svg PUBLIC "-//W3C//DTD SVG 1.1//EN" "http://www.w3.org/Graphics/SVG/1.1/DTD/svg11.dtd">
<svg version="1.1" id="Layer_1" xmlns="http://www.w3.org/2000/svg" xmlns:xlink="http://www.w3.org/1999/xlink" x="0px" y="0px"
	 width="120px" height="120px" viewBox="0 0 120 120" enable-background="new 0 0 120 120" xml:space="preserve">
<g>
	<path fill="#FFFFFF" d="M14.626,75.46l14.307-34.787h3.626L46.817,75.46h-4.704l-4.116-10.191H23.396L19.33,75.46H14.626z
		 M30.746,45.769l-6.467,16.07h12.739L30.746,45.769z"/>
	<path fill="#FFFFFF" d="M71.514,47.973c-1.617-1.813-5.291-3.625-9.457-3.625c-5.388,0-7.838,2.156-7.838,5.684
		c0,3.724,2.891,4.704,9.163,6.125c7.252,1.617,11.758,3.674,11.758,9.946c0,6.713-5.486,9.701-12.641,9.701
		c-5.34,0-10.24-1.715-14.16-4.899l2.107-3.724c2.106,2.205,6.859,4.654,12.15,4.654c4.949,0,7.84-1.813,7.84-5.291
		c0-3.92-3.576-5.096-10.043-6.664c-7.056-1.715-10.73-3.626-10.73-9.163c0-6.663,5.292-10.289,12.495-10.289
		c4.654,0,8.477,1.568,11.416,3.969L71.514,47.973z"/>
	<path fill="#FFFFFF" d="M81.021,75.46V40.673h14.502c6.125,0,10.533,5.634,10.533,11.122c0,5.732-4.115,11.171-10.238,11.171H85.43
		V75.46H81.021z M85.43,59.046h10.143c3.625,0,6.027-3.283,6.027-7.251c0-4.116-2.941-7.203-6.32-7.203h-9.85V59.046z"/>
</g>
</svg>
