<?xml version="1.0" encoding="utf-8"?>
<!-- Generator: Adobe Illustrator 16.0.3, SVG Export Plug-In . SVG Version: 6.00 Build 0)  -->
<!DOCTYPE svg PUBLIC "-//W3C//DTD SVG 1.1//EN" "http://www.w3.org/Graphics/SVG/1.1/DTD/svg11.dtd">
<svg version="1.1" id="Layer_1" xmlns="http://www.w3.org/2000/svg" xmlns:xlink="http://www.w3.org/1999/xlink" x="0px" y="0px"
	 width="120px" height="120px" viewBox="0 0 120 120" enable-background="new 0 0 120 120" xml:space="preserve">
<g>
	<path fill="#563D7C" d="M12.664,95.129c0,6.743,5.465,12.207,12.208,12.207h70.258c6.743,0,12.207-5.465,12.207-12.207V24.871
		c0-6.743-5.465-12.208-12.207-12.208H24.871c-6.743,0-12.208,5.465-12.208,12.208V95.129z"/>
	<path fill="#FFFFFF" d="M51.922,54.541V41.134h11.801c1.124,0,2.208,0.094,3.252,0.281c1.043,0.188,1.967,0.522,2.77,1.004
		c0.803,0.481,1.444,1.15,1.927,2.007c0.481,0.856,0.723,1.954,0.723,3.292c0,2.409-0.723,4.148-2.168,5.218
		c-1.445,1.071-3.291,1.606-5.54,1.606H51.922L51.922,54.541z M39.318,31.339V88.66h27.778c2.569,0,5.071-0.32,7.506-0.963
		c2.436-0.643,4.604-1.633,6.503-2.971c1.9-1.338,3.412-3.063,4.536-5.178s1.686-4.616,1.686-7.507c0-3.586-0.869-6.649-2.608-9.191
		c-1.74-2.543-4.376-4.323-7.908-5.339c2.569-1.231,4.51-2.81,5.82-4.737c1.312-1.927,1.967-4.335,1.967-7.225
		c0-2.676-0.441-4.924-1.324-6.744s-2.127-3.278-3.733-4.375c-1.605-1.097-3.532-1.887-5.78-2.368
		c-2.248-0.482-4.736-0.723-7.466-0.723H39.318L39.318,31.339z M51.922,78.866V63.131H65.65c2.729,0,4.924,0.629,6.583,1.887
		s2.489,3.358,2.489,6.302c0,1.499-0.254,2.73-0.763,3.693s-1.191,1.727-2.047,2.288c-0.856,0.562-1.848,0.963-2.971,1.204
		c-1.124,0.241-2.302,0.361-3.533,0.361H51.922L51.922,78.866z"/>
</g>
</svg>
