<?xml version="1.0" encoding="utf-8"?>
<!-- Generator: Adobe Illustrator 16.0.3, SVG Export Plug-In . SVG Version: 6.00 Build 0)  -->
<!DOCTYPE svg PUBLIC "-//W3C//DTD SVG 1.1//EN" "http://www.w3.org/Graphics/SVG/1.1/DTD/svg11.dtd">
<svg version="1.1" id="Layer_1" xmlns="http://www.w3.org/2000/svg" xmlns:xlink="http://www.w3.org/1999/xlink" x="0px" y="0px"
	 width="120px" height="120px" viewBox="0 0 120 120" enable-background="new 0 0 120 120" xml:space="preserve">
<g>
	<path fill="#264DE4" d="M59.957,109.794l-28.813-8l-6.421-72.017h70.555l-6.429,72.006L59.957,109.794L59.957,109.794z"/>
	<path fill="#2965F1" d="M83.347,97.198l5.492-61.532H60v68.005L83.347,97.198L83.347,97.198z"/>
	<path fill="#EBEBEB" d="M39.442,62.377l0.792,8.832H60v-8.832H39.442L39.442,62.377z"/>
	<path fill="#EBEBEB" d="M37.852,44.498l0.803,8.833H60v-8.833H37.852L37.852,44.498z"/>
	<path fill="#EBEBEB" d="M60,85.315l-0.039,0.012l-9.837-2.657l-0.628-7.045h-8.867l1.237,13.869l18.094,5.022L60,94.506V85.315
		L60,85.315z"/>
	<path fill="#FFFFFF" d="M41.327,10.206h10.698v4.474h-6.225v4.474h6.225v4.474H41.327V10.206L41.327,10.206z"/>
	<path fill="#FFFFFF" d="M54.165,10.206h10.697v3.89h-6.224v0.778h6.224v8.948H54.165v-4.085h6.224v-0.778h-6.224V10.206
		L54.165,10.206z"/>
	<path fill="#FFFFFF" d="M67.002,10.206H77.7v3.89h-6.225v0.778H77.7v8.948H67.002v-4.085h6.225v-0.778h-6.225V10.206L67.002,10.206
		z"/>
	<path fill="#FFFFFF" d="M80.501,62.377l1.595-17.879H59.969v8.833h12.447l-0.804,9.046H59.969v8.832h10.877l-1.025,11.455
		l-9.852,2.659v9.189l18.107-5.019l0.134-1.492l2.075-23.254L80.501,62.377L80.501,62.377z"/>
</g>
</svg>
