<?xml version="1.0" encoding="utf-8"?>
<!-- Generator: Adobe Illustrator 16.0.3, SVG Export Plug-In . SVG Version: 6.00 Build 0)  -->
<!DOCTYPE svg PUBLIC "-//W3C//DTD SVG 1.1//EN" "http://www.w3.org/Graphics/SVG/1.1/DTD/svg11.dtd">
<svg version="1.1" id="Layer_1" xmlns="http://www.w3.org/2000/svg" xmlns:xlink="http://www.w3.org/1999/xlink" x="0px" y="0px"
	 width="120px" height="120px" viewBox="0 0 120 120" enable-background="new 0 0 120 120" xml:space="preserve">
<g>
	<path fill="#FFFFFF" d="M40.287,53.284v2.001h-8.154V43.542h8.005v2.001h-5.723v2.828h4.945v1.853h-4.945v3.06H40.287z"/>
	<path fill="#FFFFFF" d="M44.407,47.759v7.526h-2.282V43.542h1.77l6.12,7.708v-7.691h2.283v11.727h-1.853L44.407,47.759z"/>
	<path fill="#FFFFFF" d="M63.531,45.543h-3.738v9.742h-2.283v-9.742h-3.755v-2.001h9.775V45.543z"/>
	<path fill="#FFFFFF" d="M65.005,55.285V43.558h2.283v11.727H65.005z"/>
	<path fill="#FFFFFF" d="M78.521,45.543h-3.738v9.742H72.5v-9.742h-3.755v-2.001h9.775V45.543z"/>
	<path fill="#FFFFFF" d="M81.186,43.542l2.895,5.657l2.944-5.657h2.464l-4.267,7.642v4.102h-2.267V51.15l-4.251-7.608H81.186z"/>
	<path fill="#FFFFFF" d="M7.481,75.139V63.395h7.89v2.002H9.764v3.026h4.664v1.853H9.764v4.863H7.481z"/>
	<path fill="#FFFFFF" d="M16.928,75.139V63.395h5.193c2.167,0,3.738,1.985,3.738,3.904c0,1.505-0.827,2.878-2.117,3.424l2.762,4.416
		h-2.58l-2.464-3.937h-2.25v3.937H16.928z M19.21,69.2h2.862c0.843,0,1.489-0.843,1.489-1.901c0-1.092-0.777-1.902-1.588-1.902
		H19.21V69.2z"/>
	<path fill="#FFFFFF" d="M26.822,75.139l4.631-11.744h1.853l4.615,11.744h-2.415l-1.075-2.928h-4.119l-1.075,2.928H26.822z
		 M32.379,65.859l-1.687,4.747h3.324L32.379,65.859z"/>
	<path fill="#FFFFFF" d="M48.757,75.139v-7.774l-3.027,5.79h-1.24l-3.027-5.79v7.774H39.18V63.395h2.448l3.474,6.683l3.507-6.683
		h2.431v11.744H48.757z"/>
	<path fill="#FFFFFF" d="M61.646,73.138v2.001h-8.154V63.395h8.006v2.002h-5.724v2.828h4.946v1.853h-4.946v3.061H61.646z"/>
	<path fill="#FFFFFF" d="M67.536,63.428h2.101l1.323,3.888l1.323-3.888H74.4l-2.001,5.343l1.488,3.755l3.325-9.131h2.48
		l-4.78,11.744h-1.919L70.96,70.21l-2.034,4.929h-1.919l-4.764-11.744h2.465l3.341,9.131l1.456-3.755L67.536,63.428z"/>
	<path fill="#FFFFFF" d="M79.78,69.267c0-3.126,2.382-5.954,5.607-5.954c3.324,0,5.541,3.026,5.541,5.987
		c0,3.109-2.349,5.922-5.591,5.922C82.014,75.222,79.78,72.277,79.78,69.267z M85.371,73.203c2.101,0,3.258-2.001,3.258-3.937
		c0-2.034-1.257-3.92-3.274-3.92c-2.101,0-3.275,1.985-3.275,3.92C82.079,71.301,83.304,73.203,85.371,73.203z"/>
	<path fill="#FFFFFF" d="M92.701,75.139V63.395h5.194c2.167,0,3.738,1.985,3.738,3.904c0,1.505-0.827,2.878-2.117,3.424l2.762,4.416
		h-2.58l-2.465-3.937h-2.249v3.937H92.701z M94.984,69.2h2.861c0.844,0,1.488-0.843,1.488-1.901c0-1.092-0.777-1.902-1.588-1.902
		h-2.762V69.2z"/>
	<path fill="#FFFFFF" d="M103.852,75.139V63.411h2.283v5.724l5.078-5.74h2.365l-4.499,5.211l4.78,6.533h-2.415l-3.738-5.243
		l-1.571,1.703v3.54H103.852z"/>
</g>
</svg>
