<?xml version="1.0" encoding="utf-8"?>
<!-- Generator: Adobe Illustrator 16.0.3, SVG Export Plug-In . SVG Version: 6.00 Build 0)  -->
<!DOCTYPE svg PUBLIC "-//W3C//DTD SVG 1.1//EN" "http://www.w3.org/Graphics/SVG/1.1/DTD/svg11.dtd">
<svg version="1.1" id="Layer_1" xmlns="http://www.w3.org/2000/svg" xmlns:xlink="http://www.w3.org/1999/xlink" x="0px" y="0px"
	 width="120px" height="120px" viewBox="0 0 120 120" enable-background="new 0 0 120 120" xml:space="preserve">
<g>
	<path fill="#FFFFFF" d="M30.588,8.987h4.583v4.543h4.225V8.987h4.583v13.75h-4.583v-4.583h-4.185v4.583h-4.623 M50.037,13.57
		h-4.045V8.987h12.693v4.583H54.62v9.167h-4.583 M60.697,8.987h4.802l2.95,4.842l2.949-4.842H76.2v13.75h-4.583v-6.815l-3.208,4.942
		L65.2,15.921v6.815h-4.503 M78.473,8.987h4.583v9.207h6.496v4.543H78.473"/>
	<path fill="#E44D26" d="M30.429,102.843l-6.576-73.809h72.295l-6.575,73.769l-29.632,8.21"/>
	<path fill="#F16529" d="M60,104.735V35.091h29.552l-5.64,62.969"/>
	<path fill="#EBEBEB" d="M37.283,44.118H60v9.047H47.207l0.837,9.266H60v9.026H39.754 M40.153,76.001h9.087l0.638,7.233L60,85.945
		v9.444l-18.572-5.181"/>
	<path fill="#FFFFFF" d="M82.637,44.118H59.96v9.047h21.841 M80.982,62.432H59.96v9.046h11.159l-1.056,11.757L59.96,85.945v9.405
		l18.532-5.142"/>
</g>
</svg>
