<?xml version="1.0" encoding="utf-8"?>
<!-- Generator: Adobe Illustrator 16.0.3, SVG Export Plug-In . SVG Version: 6.00 Build 0)  -->
<!DOCTYPE svg PUBLIC "-//W3C//DTD SVG 1.1//EN" "http://www.w3.org/Graphics/SVG/1.1/DTD/svg11.dtd">
<svg version="1.1" id="Layer_1" xmlns="http://www.w3.org/2000/svg" xmlns:xlink="http://www.w3.org/1999/xlink" x="0px" y="0px"
	 width="120px" height="120px" viewBox="0 0 120 120" enable-background="new 0 0 120 120" xml:space="preserve">
<g>
	<path fill="#4E8EF7" d="M13.826,86.391h1.209v22.876h-1.209V86.391z M32.211,85.83c-6.862,0-12.04,5.18-12.04,11.999
		c0,6.859,5.178,11.997,12.04,11.997c6.863,0,12.042-5.138,12.042-11.997C44.252,91.01,39.074,85.83,32.211,85.83L32.211,85.83z
		 M32.211,108.702c-6.171,0-10.832-4.659-10.832-10.873c0-6.218,4.661-10.878,10.832-10.878c6.172,0,10.834,4.66,10.834,10.878
		C43.044,104.043,38.383,108.702,32.211,108.702z M67.082,88.116c-2.589-2.113-5.695-2.286-7.292-2.286
		c-3.624,0-7.64,1.682-9.062,4.963h-0.089v-4.402h-1.208v22.876h1.208V96.1c0-5.739,3.54-9.148,9.279-9.148
		c3.454,0,5.307,1.124,6.473,2.158c1.727,1.554,2.807,4.1,2.807,8.07v12.087h1.207V97.18C70.405,93.079,69.327,90.014,67.082,88.116
		z M77.096,86.391h1.209v22.876h-1.209V86.391z M95.48,108.702c-5.826,0-10.833-4.401-10.833-10.873
		c0-3.108,1.295-6.131,3.151-7.815c2.374-2.113,4.487-3.063,7.725-3.063c4.487,0,8.459,2.502,10.013,6.859h1.337
		c-1.811-5.392-6.732-7.98-11.393-7.98c-6.949,0-12.042,5.263-12.042,12.04c0,7.124,5.394,11.956,12.042,11.956
		c5.438,0,9.754-3.106,11.351-7.771h-1.338C104.371,105.466,100.658,108.702,95.48,108.702z"/>
	<circle fill="#4E8EF7" cx="14.431" cy="79.3" r="1.305"/>
	<circle fill="#4E8EF7" cx="77.7" cy="79.3" r="1.305"/>
	<circle fill="#4E8EF7" cx="60.725" cy="39.4" r="11.932"/>
	<path fill="#4E8EF7" d="M85.076,19.153c0-2.267-1.838-4.104-4.103-4.104c-0.987,0-1.942,0.357-2.687,1.007
		c-4.892-3.691-10.975-5.881-17.562-5.881C44.609,10.174,31.5,23.285,31.5,39.4c0,16.115,13.11,29.224,29.226,29.224
		S89.949,55.515,89.949,39.4c0-6.586-2.189-12.67-5.878-17.563C84.721,21.094,85.076,20.14,85.076,19.153z M60.725,67.643
		c-15.573,0-28.243-12.67-28.243-28.243c0-15.572,12.669-28.242,28.243-28.242c6.333,0,12.184,2.095,16.899,5.627
		c-0.491,0.692-0.755,1.519-0.754,2.367c0,2.267,1.837,4.103,4.104,4.103c0.882,0,1.695-0.281,2.365-0.755
		c3.534,4.716,5.627,10.567,5.627,16.9C88.967,54.973,76.298,67.643,60.725,67.643L60.725,67.643z"/>
</g>
</svg>
