<?xml version="1.0" encoding="utf-8"?>
<!-- Generator: Adobe Illustrator 16.0.3, SVG Export Plug-In . SVG Version: 6.00 Build 0)  -->
<!DOCTYPE svg PUBLIC "-//W3C//DTD SVG 1.1//EN" "http://www.w3.org/Graphics/SVG/1.1/DTD/svg11.dtd">
<svg version="1.1" id="Layer_1" xmlns="http://www.w3.org/2000/svg" xmlns:xlink="http://www.w3.org/1999/xlink" x="0px" y="0px"
	 width="120px" height="120px" viewBox="0 0 120 120" enable-background="new 0 0 120 120" xml:space="preserve">
<rect x="8.672" y="8.672" fill="#F7DF1E" width="102.656" height="102.656"/>
<path d="M76.631,88.872c2.067,3.377,4.758,5.858,9.516,5.858c3.997,0,6.551-1.998,6.551-4.758c0-3.308-2.623-4.479-7.023-6.404
	l-2.411-1.034c-6.961-2.966-11.586-6.681-11.586-14.535c0-7.235,5.513-12.742,14.128-12.742c6.133,0,10.543,2.134,13.72,7.724
	l-7.512,4.823c-1.653-2.966-3.438-4.134-6.208-4.134c-2.825,0-4.616,1.792-4.616,4.134c0,2.894,1.792,4.065,5.932,5.857l2.411,1.033
	c8.196,3.515,12.824,7.099,12.824,15.154c0,8.685-6.823,13.443-15.985,13.443c-8.959,0-14.747-4.27-17.579-9.865L76.631,88.872z
	 M42.554,89.709c1.516,2.688,2.894,4.961,6.208,4.961c3.169,0,5.168-1.24,5.168-6.062V55.808h9.646v32.932
	c0,9.988-5.856,14.534-14.404,14.534c-7.724,0-12.197-3.997-14.472-8.812L42.554,89.709z"/>
</svg>
