<?xml version="1.0" encoding="utf-8"?>
<!-- Generator: Adobe Illustrator 16.0.3, SVG Export Plug-In . SVG Version: 6.00 Build 0)  -->
<!DOCTYPE svg PUBLIC "-//W3C//DTD SVG 1.1//EN" "http://www.w3.org/Graphics/SVG/1.1/DTD/svg11.dtd">
<svg version="1.1" id="Layer_1" xmlns="http://www.w3.org/2000/svg" xmlns:xlink="http://www.w3.org/1999/xlink" x="0px" y="0px"
	 width="120px" height="120px" viewBox="0 0 120 120" enable-background="new 0 0 120 120" xml:space="preserve">
<path fill-rule="evenodd" clip-rule="evenodd" fill="#6A7E91" d="M78.581,33.889c-0.423,0-0.721,0.051-1.022,0.125v0.05h0.049
	c0.201,0.398,0.551,0.674,0.798,1.022c0.201,0.399,0.375,0.796,0.574,1.195c0.025-0.024,0.049-0.05,0.049-0.05
	c0.352-0.249,0.525-0.647,0.525-1.247c-0.15-0.175-0.174-0.349-0.3-0.523C79.105,34.213,78.78,34.089,78.581,33.889"/>
<g>
	<path fill="#00758F" d="M35.102,86.773h-3.701c-0.13-6.247-0.491-12.121-1.081-17.624h-0.033l-5.635,17.624h-2.818l-5.601-17.624
		h-0.033c-0.416,5.284-0.677,11.159-0.786,17.624h-3.374c0.218-7.862,0.764-15.233,1.637-22.112h4.587l5.339,16.246h0.032
		l5.373-16.246h4.389C34.36,72.719,34.928,80.09,35.102,86.773"/>
	<path fill="#00758F" d="M51.153,70.459c-1.506,8.176-3.494,14.119-5.962,17.827c-1.922,2.855-4.028,4.284-6.322,4.284
		c-0.611,0-1.365-0.184-2.26-0.55v-1.972c0.437,0.064,0.95,0.099,1.54,0.099c1.07,0,1.932-0.296,2.588-0.887
		c0.786-0.719,1.179-1.527,1.179-2.423c0-0.611-0.307-1.867-0.917-3.766l-4.062-12.613h3.636l2.916,9.434
		c0.654,2.142,0.928,3.636,0.819,4.489c1.594-4.26,2.708-8.899,3.342-13.923H51.153z"/>
	<polygon fill="#F29111" points="100.42,86.773 89.905,86.773 89.905,64.661 93.442,64.661 93.442,84.053 100.42,84.053 	"/>
	<path fill-rule="evenodd" clip-rule="evenodd" fill="#F29111" d="M87.154,87.306l-4.065-2.003c0.362-0.298,0.706-0.618,1.018-0.987
		c1.725-2.029,2.59-5.033,2.59-9.008c0-7.315-2.873-10.976-8.617-10.976c-2.814,0-5.011,0.928-6.584,2.786
		c-1.726,2.03-2.588,5.022-2.588,8.976c0,3.887,0.764,6.738,2.292,8.549c1.398,1.638,3.506,2.457,6.324,2.457
		c1.052,0,2.018-0.129,2.895-0.389l5.292,3.081L87.154,87.306z M73.985,82.35c-0.896-1.442-1.345-3.754-1.345-6.943
		c0-5.569,1.694-8.354,5.079-8.354c1.77,0,3.067,0.666,3.897,1.998c0.896,1.441,1.345,3.735,1.345,6.879
		c0,5.613-1.694,8.421-5.079,8.421C76.113,84.35,74.814,83.684,73.985,82.35"/>
	<path fill="#F29111" d="M67.366,80.644c0,1.876-0.69,3.415-2.064,4.619c-1.374,1.199-3.22,1.802-5.533,1.802
		c-2.162,0-4.258-0.692-6.289-2.065l0.95-1.899c1.748,0.874,3.329,1.31,4.749,1.31c1.332,0,2.374-0.296,3.128-0.882
		c0.753-0.59,1.204-1.411,1.204-2.455c0-1.314-0.916-2.438-2.596-3.377c-1.551-0.852-4.65-2.629-4.65-2.629
		c-1.68-1.224-2.521-2.54-2.521-4.706c0-1.79,0.627-3.237,1.882-4.341c1.257-1.103,2.879-1.655,4.865-1.655
		c2.052,0,3.918,0.549,5.601,1.64l-0.854,1.898c-1.438-0.61-2.857-0.916-4.256-0.916c-1.135,0-2.009,0.272-2.619,0.82
		c-0.613,0.543-0.992,1.243-0.992,2.095c0,1.309,0.936,2.446,2.663,3.406c1.571,0.851,4.747,2.662,4.747,2.662
		C66.504,77.193,67.366,78.497,67.366,80.644"/>
	<path fill-rule="evenodd" clip-rule="evenodd" fill="#00758F" d="M104.859,57.254c-2.138-0.054-3.793,0.16-5.183,0.748
		c-0.399,0.16-1.041,0.16-1.096,0.667c0.214,0.214,0.241,0.561,0.43,0.856c0.318,0.534,0.879,1.254,1.388,1.628
		c0.561,0.428,1.122,0.854,1.71,1.228c1.042,0.644,2.217,1.017,3.232,1.658c0.588,0.374,1.174,0.854,1.765,1.256
		c0.293,0.214,0.479,0.563,0.854,0.694v-0.081c-0.188-0.239-0.24-0.587-0.427-0.856c-0.268-0.265-0.533-0.507-0.802-0.772
		c-0.776-1.042-1.739-1.949-2.778-2.698c-0.855-0.588-2.728-1.39-3.071-2.376c0,0-0.028-0.028-0.056-0.054
		c0.589-0.054,1.283-0.268,1.845-0.43c0.906-0.24,1.735-0.186,2.671-0.425c0.427-0.108,0.854-0.243,1.282-0.374v-0.242
		c-0.48-0.48-0.828-1.123-1.335-1.576c-1.362-1.176-2.859-2.324-4.407-3.287c-0.83-0.535-1.899-0.88-2.781-1.335
		c-0.32-0.161-0.854-0.24-1.04-0.509c-0.481-0.587-0.749-1.361-1.097-2.057c-0.774-1.467-1.524-3.097-2.189-4.648
		c-0.481-1.042-0.776-2.083-1.363-3.045c-2.754-4.542-5.745-7.293-10.341-9.992c-0.988-0.562-2.164-0.802-3.418-1.096
		c-0.67-0.028-1.335-0.08-2.005-0.106c-0.428-0.188-0.857-0.696-1.229-0.936c-1.523-0.962-5.448-3.045-6.573-0.294
		c-0.72,1.737,1.069,3.447,1.686,4.329c0.452,0.614,1.043,1.31,1.36,2.003c0.188,0.455,0.241,0.936,0.429,1.417
		c0.428,1.175,0.827,2.485,1.389,3.581c0.295,0.561,0.613,1.149,0.988,1.654c0.216,0.296,0.588,0.428,0.67,0.911
		c-0.373,0.534-0.402,1.335-0.616,2.003c-0.961,3.02-0.588,6.76,0.774,8.977c0.428,0.668,1.442,2.139,2.805,1.575
		c1.204-0.479,0.937-2.002,1.284-3.337c0.079-0.322,0.027-0.535,0.186-0.749v0.055c0.373,0.747,0.75,1.466,1.098,2.216
		c0.828,1.309,2.269,2.671,3.473,3.579c0.64,0.483,1.147,1.31,1.949,1.604v-0.081h-0.053c-0.161-0.239-0.4-0.347-0.615-0.534
		c-0.479-0.481-1.014-1.07-1.388-1.604c-1.123-1.496-2.112-3.152-2.994-4.863c-0.427-0.83-0.8-1.737-1.148-2.565
		c-0.159-0.319-0.159-0.802-0.428-0.961c-0.401,0.587-0.987,1.095-1.281,1.815c-0.508,1.149-0.561,2.566-0.749,4.036
		c-0.106,0.027-0.053,0-0.106,0.052c-0.854-0.213-1.147-1.095-1.47-1.841c-0.802-1.899-0.936-4.945-0.24-7.136
		c0.186-0.56,0.99-2.323,0.668-2.857c-0.162-0.51-0.696-0.801-0.989-1.203c-0.347-0.508-0.722-1.148-0.96-1.71
		c-0.644-1.496-0.964-3.153-1.656-4.648c-0.323-0.696-0.883-1.417-1.335-2.057c-0.51-0.722-1.07-1.229-1.472-2.083
		c-0.132-0.295-0.321-0.776-0.107-1.095c0.053-0.214,0.161-0.295,0.375-0.35c0.346-0.293,1.336,0.081,1.683,0.24
		c0.988,0.4,1.817,0.776,2.645,1.336c0.374,0.268,0.776,0.775,1.256,0.91h0.562c0.855,0.185,1.815,0.051,2.62,0.293
		c1.415,0.454,2.696,1.122,3.846,1.843c3.499,2.218,6.384,5.371,8.335,9.138c0.32,0.614,0.454,1.175,0.75,1.815
		c0.561,1.312,1.256,2.647,1.814,3.928c0.561,1.256,1.097,2.537,1.898,3.581c0.399,0.56,2.003,0.854,2.726,1.147
		c0.533,0.24,1.363,0.455,1.844,0.748c0.909,0.56,1.815,1.203,2.672,1.818C103.444,56.052,104.779,56.719,104.859,57.254"/>
	<path fill="#F29111" d="M107.406,86.771h0.553v-2.71h-0.831l-0.676,1.847l-0.736-1.847h-0.802v2.71h0.523v-2.063h0.028l0.773,2.063
		h0.397l0.77-2.063V86.771z M102.945,86.771h0.587v-2.251h0.766v-0.459h-2.149v0.459h0.797V86.771z"/>
</g>
</svg>
