<?xml version="1.0" encoding="utf-8"?>
<!-- Generator: Adobe Illustrator 16.0.3, SVG Export Plug-In . SVG Version: 6.00 Build 0)  -->
<!DOCTYPE svg PUBLIC "-//W3C//DTD SVG 1.1//EN" "http://www.w3.org/Graphics/SVG/1.1/DTD/svg11.dtd">
<svg version="1.1" id="Layer_1" xmlns="http://www.w3.org/2000/svg" xmlns:xlink="http://www.w3.org/1999/xlink" x="0px" y="0px"
	 width="120px" height="120px" viewBox="0 0 120 120" enable-background="new 0 0 120 120" xml:space="preserve">
<g>
	<path fill="#FFFFFF" d="M22.27,40.844h4.164l4.605,12.102l4.655-12.102h4.164l-6.026,15.14L39.81,70.34l11.759-29.692h4.802
		L41.818,75.436h-3.821l-6.908-16.414l-6.958,16.414H20.31L5.807,40.648h4.752L22.367,70.34l5.929-14.356L22.27,40.844z"/>
	<path fill="#FFFFFF" d="M60.931,75.436V40.648h14.502c6.125,0,10.534,5.634,10.534,11.122c0,5.732-4.115,11.171-10.239,11.171
		H65.34v12.494H60.931z M65.34,59.021h10.143c3.625,0,6.026-3.283,6.026-7.251c0-4.116-2.94-7.203-6.32-7.203H65.34V59.021z"/>
	<path fill="#FFFFFF" d="M91.359,75.436V40.648h22.979v3.919H95.769V56.18h15.63v3.675h-15.63v15.581H91.359z"/>
</g>
</svg>
