<?xml version="1.0" encoding="utf-8"?>
<!-- Generator: Adobe Illustrator 16.0.3, SVG Export Plug-In . SVG Version: 6.00 Build 0)  -->
<!DOCTYPE svg PUBLIC "-//W3C//DTD SVG 1.1//EN" "http://www.w3.org/Graphics/SVG/1.1/DTD/svg11.dtd">
<svg version="1.1" id="Layer_1" xmlns="http://www.w3.org/2000/svg" xmlns:xlink="http://www.w3.org/1999/xlink" x="0px" y="0px"
	 width="120px" height="120px" viewBox="0 0 120 120" enable-background="new 0 0 120 120" xml:space="preserve">
<g>
	<path fill="#FFFFFF" d="M10.808,74.073V42.352h4.021v28.147h17.692v3.574H10.808z"/>
	<path fill="#FFFFFF" d="M37.168,74.073V42.396h4.021v31.677H37.168z"/>
	<path fill="#FFFFFF" d="M52.806,49.858v24.215h-4.021V42.352h3.128L71.57,67.059V42.396h4.021v31.677h-3.396L52.806,49.858z"/>
	<path fill="#FFFFFF" d="M104.633,71.482c-2.368,1.742-5.272,2.814-8.489,2.814c-8.891-0.045-14.922-7.953-14.922-16.084
		c0-8.444,6.434-16.084,15.012-16.084c8.891,0,14.878,8.176,14.878,16.128c0,4.245-1.609,8.265-4.289,11.214l3.976,4.602h-3.932
		L104.633,71.482z M102.22,68.667l-4.244-4.959h3.932l2.413,2.814c1.742-2.323,2.725-5.316,2.725-8.31
		c0-6.479-4.423-12.465-10.856-12.465c-6.746,0-10.901,6.299-10.901,12.465c0,6.479,4.334,12.465,10.901,12.465
		C98.512,70.678,100.566,69.918,102.22,68.667z"/>
</g>
</svg>
