<?xml version="1.0" encoding="utf-8"?>
<!-- Generator: Adobe Illustrator 16.0.3, SVG Export Plug-In . SVG Version: 6.00 Build 0)  -->
<!DOCTYPE svg PUBLIC "-//W3C//DTD SVG 1.1//EN" "http://www.w3.org/Graphics/SVG/1.1/DTD/svg11.dtd">
<svg version="1.1" id="Layer_1" xmlns="http://www.w3.org/2000/svg" xmlns:xlink="http://www.w3.org/1999/xlink" x="0px" y="0px"
	 width="120px" height="120px" viewBox="0 0 120 120" enable-background="new 0 0 120 120" xml:space="preserve">
<path fill="#CF649A" d="M95.409,65.459c-3.432,0.021-6.402,0.845-8.895,2.071c-0.919-1.821-1.84-3.412-1.993-4.601
	c-0.173-1.38-0.383-2.224-0.173-3.871c0.212-1.649,1.171-3.987,1.171-4.179c-0.02-0.173-0.212-1.015-2.186-1.035
	c-1.975-0.02-3.68,0.383-3.871,0.901s-0.576,1.706-0.826,2.933c-0.345,1.802-3.947,8.185-5.998,11.54
	c-0.671-1.305-1.246-2.454-1.362-3.375c-0.172-1.38-0.382-2.223-0.172-3.871c0.212-1.649,1.169-3.987,1.169-4.179
	c-0.018-0.172-0.211-1.016-2.184-1.035c-1.975-0.02-3.681,0.384-3.872,0.901c-0.192,0.517-0.403,1.744-0.824,2.931
	c-0.402,1.19-5.195,11.846-6.441,14.625c-0.632,1.419-1.188,2.549-1.59,3.315c-0.402,0.768-0.02,0.059-0.058,0.135
	c-0.345,0.651-0.537,1.016-0.537,1.016v0.02c-0.268,0.479-0.556,0.939-0.69,0.939c-0.096,0-0.288-1.284,0.039-3.048
	c0.709-3.699,2.434-9.469,2.416-9.679c0-0.096,0.325-1.112-1.112-1.63c-1.399-0.518-1.898,0.346-2.013,0.346
	c-0.115,0-0.21,0.307-0.21,0.307s1.551-6.499-2.972-6.499c-2.836,0-6.747,3.086-8.682,5.904c-1.227,0.671-3.834,2.09-6.594,3.604
	c-1.054,0.575-2.146,1.188-3.181,1.744l-0.21-0.229c-5.482-5.847-15.622-9.987-15.2-17.846c0.153-2.855,1.15-10.389,19.474-19.512
	c15.007-7.475,27.026-5.424,29.114-0.862c2.972,6.517-6.42,18.63-22.022,20.375c-5.942,0.671-9.066-1.629-9.852-2.491
	c-0.824-0.901-0.939-0.939-1.246-0.767c-0.498,0.269-0.191,1.074,0,1.552c0.46,1.208,2.377,3.354,5.635,4.428
	c2.856,0.938,9.833,1.456,18.266-1.802c9.45-3.661,16.829-13.819,14.663-22.311c-2.204-8.644-16.542-11.481-30.092-6.67
	c-8.07,2.875-16.81,7.36-23.096,13.245c-7.476,6.977-8.664,13.072-8.166,15.602c1.744,9.028,14.184,14.912,19.167,19.263
	c-0.25,0.135-0.479,0.269-0.69,0.384c-2.492,1.227-11.98,6.191-14.356,11.443c-2.684,5.94,0.421,10.215,2.492,10.79
	c6.402,1.783,12.957-1.418,16.502-6.688c3.526-5.271,3.104-12.114,1.476-15.238l-0.058-0.114l1.955-1.151
	c1.265-0.747,2.512-1.437,3.604-2.031c-0.614,1.668-1.055,3.642-1.285,6.517c-0.268,3.374,1.112,7.744,2.933,9.468
	c0.805,0.748,1.763,0.768,2.357,0.768c2.108,0,3.066-1.744,4.121-3.834c1.304-2.549,2.454-5.5,2.454-5.5s-1.438,7.993,2.492,7.993
	c1.437,0,2.875-1.86,3.526-2.819v0.021c0,0,0.038-0.058,0.115-0.192c0.081-0.119,0.157-0.239,0.23-0.364v-0.037
	c0.575-0.997,1.859-3.278,3.776-7.055c2.473-4.868,4.849-10.963,4.849-10.963s0.23,1.495,0.939,3.948
	c0.421,1.457,1.342,3.048,2.051,4.6c-0.575,0.806-0.92,1.266-0.92,1.266l0.02,0.019c-0.461,0.614-0.979,1.266-1.515,1.917
	c-1.954,2.338-4.293,5.004-4.6,5.771c-0.364,0.899-0.287,1.571,0.422,2.107c0.518,0.384,1.438,0.461,2.415,0.384
	c1.763-0.115,2.989-0.557,3.603-0.825c0.958-0.345,2.052-0.862,3.105-1.629c1.916-1.418,3.086-3.43,2.971-6.113
	c-0.058-1.477-0.537-2.934-1.131-4.313c0.173-0.25,0.345-0.499,0.517-0.768c3.029-4.428,5.367-9.296,5.367-9.296
	s0.23,1.496,0.939,3.949c0.364,1.245,1.093,2.606,1.744,3.948c-2.835,2.319-4.619,5.002-5.232,6.766
	c-1.131,3.259-0.249,4.734,1.418,5.079c0.748,0.153,1.82-0.191,2.626-0.537c0.996-0.325,2.205-0.881,3.316-1.704
	c1.916-1.42,3.757-3.393,3.66-6.058c-0.057-1.227-0.382-2.434-0.823-3.585c2.415-0.996,5.539-1.571,9.506-1.092
	c8.53,0.996,10.216,6.325,9.892,8.549c-0.326,2.223-2.109,3.449-2.704,3.833c-0.594,0.364-0.785,0.499-0.728,0.767
	c0.077,0.402,0.346,0.384,0.862,0.308c0.709-0.115,4.485-1.822,4.639-5.924C109.286,71.153,104.282,65.402,95.409,65.459
	L95.409,65.459z M29.627,87.636c-2.817,3.087-6.785,4.255-8.472,3.259c-1.821-1.055-1.112-5.598,2.357-8.874
	c2.108-1.994,4.849-3.834,6.651-4.965c0.402-0.249,1.015-0.612,1.744-1.054c0.116-0.077,0.191-0.115,0.191-0.115
	c0.134-0.076,0.288-0.172,0.441-0.268C33.825,80.296,32.599,84.396,29.627,87.636L29.627,87.636z M50.232,73.625
	c-0.978,2.396-3.047,8.549-4.293,8.204c-1.074-0.288-1.725-4.946-0.211-9.546c0.767-2.319,2.396-5.079,3.354-6.152
	c1.553-1.726,3.239-2.3,3.662-1.591C53.241,65.459,50.845,72.13,50.232,73.625z M67.234,81.752
	c-0.423,0.211-0.807,0.364-0.979,0.249c-0.134-0.077,0.172-0.364,0.172-0.364s2.128-2.28,2.972-3.334
	c0.479-0.614,1.054-1.323,1.667-2.128v0.23C71.066,79.165,68.421,81.004,67.234,81.752L67.234,81.752z M80.344,78.763
	c-0.307-0.231-0.269-0.939,0.766-3.164c0.404-0.881,1.322-2.356,2.914-3.756c0.191,0.575,0.307,1.13,0.288,1.647
	C84.292,76.941,81.838,78.226,80.344,78.763z"/>
</svg>
