<?xml version="1.0" encoding="utf-8"?>
<!-- Generator: Adobe Illustrator 16.0.3, SVG Export Plug-In . SVG Version: 6.00 Build 0)  -->
<!DOCTYPE svg PUBLIC "-//W3C//DTD SVG 1.1//EN" "http://www.w3.org/Graphics/SVG/1.1/DTD/svg11.dtd">
<svg version="1.1" id="Layer_1" xmlns="http://www.w3.org/2000/svg" xmlns:xlink="http://www.w3.org/1999/xlink" x="0px" y="0px"
	 width="120px" height="120px" viewBox="0 0 120 120" enable-background="new 0 0 120 120" xml:space="preserve">
<g>
	<g transform="matrix(.569 0 0 .569 199.451 -82.735)">
		
			<linearGradient id="SVGID_1_" gradientUnits="userSpaceOnUse" x1="-17850.6797" y1="-13062.4756" x2="-17813.7539" y2="-13084.2939" gradientTransform="matrix(0.1187 0 0 0.1187 1863.449 1819.7346)">
			<stop  offset="0" style="stop-color:#909CA9"/>
			<stop  offset="1" style="stop-color:#EDEDEE"/>
		</linearGradient>
		<path fill="url(#SVGID_1_)" d="M-210.74,222.523l-21.309,6.96l-18.54,8.182l-5.186,1.368c-1.322,1.256-2.706,2.53-4.204,3.818
			c-1.643,1.418-3.173,2.707-4.349,3.641c-1.305,1.031-3.238,2.962-4.219,4.188c-1.466,1.836-2.626,3.785-3.124,5.282
			c-0.886,2.708-0.452,5.444,1.255,7.974c2.191,3.223,6.555,6.508,11.646,8.746c2.593,1.145,6.958,2.61,10.244,3.431
			c5.461,1.385,16.028,2.883,21.843,3.11c1.174,0.048,2.753,0.048,2.818,0c0.127-0.082,1.031-1.806,2.078-3.947
			c3.575-7.296,6.151-14.142,7.553-19.988c0.838-3.545,1.497-8.265,1.933-13.853c0.113-1.563,0.161-6.798,0.065-8.569
			c-0.148-2.899-0.403-5.25-0.805-7.554c-0.065-0.338-0.082-0.644-0.048-0.66c0.062-0.049,0.256-0.112,2.88-0.869L-210.74,222.523
			L-210.74,222.523L-210.74,222.523L-210.74,222.523z M-215.604,225.375c0.192,0,0.709,4.945,0.838,8.07
			c0.033,0.661,0.015,1.095-0.015,1.095c-0.129,0-2.722-1.53-4.574-2.689c-1.61-1.015-4.672-3.044-5.154-3.431
			c-0.161-0.113-0.146-0.129,1.174-0.58C-221.096,227.083-215.781,225.375-215.604,225.375z M-226.461,228.951
			c0.146,0,0.517,0.209,1.404,0.757c3.318,2.078,7.828,4.591,9.759,5.429c0.596,0.257,0.661,0.16-0.709,1.095
			c-2.931,1.997-6.587,3.962-11.065,5.943c-0.789,0.354-1.45,0.628-1.464,0.628c-0.034,0,0.062-0.402,0.192-0.886
			c1.078-4.011,1.691-8.07,1.721-11.323c0.017-1.612,0.017-1.612,0.161-1.66C-226.492,228.951-226.475,228.951-226.461,228.951
			L-226.461,228.951z M-228.697,229.805c0.096,0.096,0.031,3.705-0.1,4.686c-0.288,2.352-0.74,4.542-1.479,7.008
			c-0.178,0.596-0.338,1.095-0.371,1.127c-0.064,0.081-2.272-2.078-2.995-2.916c-1.256-1.449-2.24-2.899-2.966-4.316
			c-0.369-0.724-0.949-2.142-0.901-2.19C-237.251,233.025-228.762,229.74-228.697,229.805L-228.697,229.805z M-239.233,233.944
			c0.017,0,0.034,0,0.048,0.015c0.034,0.033,0.148,0.29,0.244,0.58c0.513,1.401,1.673,3.463,2.674,4.784
			c1.095,1.45,2.526,2.996,3.719,4.01c0.386,0.322,0.741,0.628,0.789,0.676c0.096,0.097,0.129,0.081-2.495,1.08
			c-3.045,1.159-6.362,2.32-10.166,3.542c-0.907,0.293-1.815,0.589-2.721,0.887c-0.145,0.048-0.097-0.033,0.322-0.692
			c1.884-2.949,4.751-8.732,6.364-12.822c0.273-0.709,0.548-1.418,0.596-1.578c0.065-0.226,0.144-0.306,0.354-0.42
			C-239.395,233.977-239.282,233.944-239.233,233.944L-239.233,233.944z M-242.453,235.281c0.048,0.033-0.774,1.756-1.58,3.335
			c-1.562,3.044-3.27,6.04-5.556,9.679c-0.387,0.63-0.757,1.208-0.806,1.273c-0.081,0.113-0.113,0.082-0.371-0.419
			c-0.547-1.078-0.999-2.465-1.241-3.736c-0.241-1.257-0.193-3.447,0.082-4.8c0.209-0.999,0.192-0.982,0.676-1.225
			C-249.187,238.342-242.518,235.217-242.453,235.281L-242.453,235.281z M-214.668,236.408v0.676c0,3.592-0.386,8.521-0.951,12.113
			c-0.096,0.628-0.178,1.145-0.192,1.16c0,0-0.469-0.129-1.018-0.29c-2.415-0.757-5.041-1.869-7.407-3.173
			c-1.564-0.853-3.834-2.255-3.769-2.319c0.014-0.017,0.692-0.372,1.483-0.789c3.156-1.643,6.184-3.415,8.81-5.17
			c0.983-0.661,2.463-1.724,2.786-2.013L-214.668,236.408L-214.668,236.408z M-254.616,241.175c0.064,0,0.048,0.13-0.048,0.709
			c-0.065,0.42-0.146,1.193-0.177,1.724c-0.13,2.351,0.257,4.091,1.418,6.475c0.322,0.661,0.579,1.208,0.563,1.225
			c-0.112,0.096-10.776,3.222-14.126,4.141c-0.998,0.273-1.868,0.513-1.933,0.53c-0.112,0.031-0.128,0.017-0.08-0.257
			c0.37-2.368,2.174-5.462,4.687-8.071c1.675-1.739,3.012-2.754,5.299-4.059c1.643-0.934,4.172-2.335,4.364-2.399
			C-254.647,241.175-254.631,241.175-254.616,241.175z M-229.488,245.671c0.017-0.017,0.403,0.192,0.87,0.466
			c3.448,1.996,8.247,3.85,12.338,4.8l0.369,0.079l-0.513,0.292c-2.144,1.191-9.182,4.123-16.382,6.814
			c-1.047,0.386-2.078,0.772-2.271,0.853c-0.194,0.079-0.371,0.129-0.371,0.112c0-0.015,0.288-0.578,0.659-1.272
			c2.013-3.769,4.044-8.361,5.075-11.549C-229.585,245.959-229.504,245.686-229.488,245.671L-229.488,245.671z M-232.049,246.508
			c0.017,0.015-0.113,0.355-0.275,0.741c-1.4,3.398-3.235,7.103-5.588,11.26c-0.596,1.062-1.095,1.915-1.112,1.915
			c-0.014,0-0.498-0.288-1.08-0.644c-3.415-2.094-6.443-4.672-8.423-7.167l-0.29-0.354l1.466-0.403
			c5.252-1.435,9.714-2.979,14.142-4.881C-232.579,246.719-232.065,246.508-232.049,246.508z M-216.134,252.065
			C-216.134,252.065-216.12,252.08-216.134,252.065c0.014,0.369-0.807,3.687-1.483,6.089c-0.565,2.013-1.047,3.592-1.934,6.379
			c-0.384,1.222-0.723,2.238-0.74,2.238c-0.017,0-0.113-0.015-0.209-0.048c-4.783-0.872-9.067-2.078-13.093-3.69
			c-1.129-0.45-2.739-1.174-2.835-1.256c-0.034-0.031,0.934-0.482,2.157-1.014c7.329-3.204,14.932-6.844,17.542-8.407
			C-216.424,252.161-216.184,252.065-216.134,252.065z M-252.876,253.322c0.033,0.031-2.013,2.979-4.88,6.989
			c-0.998,1.404-2.158,3.045-2.593,3.657c-0.435,0.613-1.094,1.579-1.466,2.159l-0.676,1.045l-0.726-0.609
			c-0.853-0.709-2.335-2.226-2.995-3.062c-1.385-1.723-2.32-3.544-2.689-5.202c-0.178-0.774-0.178-1.16-0.017-1.208
			c0.242-0.065,4.543-1.078,8.569-2.013c2.239-0.517,4.832-1.128,5.767-1.352C-253.648,253.499-252.892,253.322-252.876,253.322z
			 M-250.814,254.112l0.515,0.58c2.32,2.592,4.687,4.509,7.556,6.184c0.515,0.29,0.901,0.547,0.87,0.565
			c-0.113,0.079-9.955,3.575-14.515,5.154c-2.56,0.901-4.671,1.627-4.686,1.627s-0.161-0.096-0.322-0.209l-0.291-0.209l0.467-0.678
			c1.514-2.19,3.415-4.589,7.555-9.584L-250.814,254.112L-250.814,254.112z M-237.96,263.307c0.017-0.015,0.726,0.242,1.596,0.565
			c2.092,0.789,3.752,1.287,5.974,1.852c2.737,0.692,6.702,1.37,9.036,1.562c0.354,0.034,0.547,0.065,0.484,0.113
			c-0.113,0.065-2.482,0.855-4.222,1.4c-2.77,0.87-11.224,3.366-18.119,5.348c-1.273,0.371-2.369,0.678-2.435,0.692
			c-0.16,0.034-0.692-0.112-0.692-0.175c0-0.033,0.387-0.534,0.854-1.081c2.32-2.77,4.622-5.863,6.541-8.792
			C-238.411,263.985-237.96,263.325-237.96,263.307L-237.96,263.307z M-240.795,263.388c0.017,0.017-1.126,1.854-3.125,5.01
			c-0.854,1.337-1.804,2.851-2.142,3.383c-0.322,0.515-0.806,1.32-1.079,1.771l-0.468,0.822l-0.241-0.065
			c-0.58-0.161-4.655-1.594-5.735-2.03c-1.337-0.53-2.722-1.176-3.753-1.723c-1.288-0.692-2.899-1.721-2.771-1.756
			c0.033-0.015,2.24-0.611,4.897-1.335c7.056-1.917,10.97-3.028,13.531-3.836C-241.212,263.484-240.812,263.373-240.795,263.388
			L-240.795,263.388z M-220.742,268.091h0.017c0.065,0.161-2.545,7.409-3.496,9.697c-0.209,0.517-0.288,0.644-0.402,0.628
			c-0.275-0.015-4.061-0.546-6.362-0.886c-4.013-0.613-10.744-1.787-12.435-2.175l-0.387-0.081l2.399-0.547
			c5.156-1.159,7.636-1.788,10.148-2.562c3.172-0.965,6.314-2.174,9.486-3.654C-221.273,268.285-220.856,268.108-220.742,268.091
			L-220.742,268.091z"/>
		
			<linearGradient id="SVGID_2_" gradientUnits="userSpaceOnUse" x1="-17849.2285" y1="-13785.1924" x2="-17819.5195" y2="-13785.1924" gradientTransform="matrix(0.1187 0 0 0.1187 1863.449 1819.7346)">
			<stop  offset="0" style="stop-color:#939FAB"/>
			<stop  offset="1" style="stop-color:#DCDEE1"/>
		</linearGradient>
		<path fill="url(#SVGID_2_)" d="M-232.71,172.85c-0.354-0.048-6.072,2.013-9.76,3.512c-4.977,2.03-8.843,3.963-11.226,5.638
			c-0.886,0.628-1.998,1.739-2.175,2.174c-0.065,0.161-0.097,0.354-0.097,0.548l2.158,2.045l5.139,1.643l12.225,2.19l13.981,2.4
			l0.144-1.207c-0.048,0-0.079-0.017-0.127-0.017l-1.838-0.289l-0.369-0.661c-1.902-3.35-3.994-7.506-5.219-10.309
			c-0.949-2.175-1.852-4.686-2.35-6.491c-0.275-1.095-0.307-1.159-0.484-1.176l0,0H-232.71L-232.71,172.85z M-232.967,173.671h0.017
			c0.014,0.016,0.079,0.468,0.144,0.999c0.275,2.256,0.774,4.429,1.564,6.781c0.594,1.772,0.594,1.675-0.098,1.466
			c-1.644-0.451-9.004-1.722-14.335-2.464c-0.854-0.113-1.579-0.226-1.579-0.241c-0.064-0.065,3.85-2.111,5.574-2.916
			C-239.474,176.281-233.419,173.752-232.967,173.671z M-248.495,180.888l0.629,0.209c3.414,1.159,12,2.803,16.735,3.19
			c0.53,0.048,0.982,0.096,0.999,0.096c0.017,0.017-0.434,0.258-1.014,0.532c-2.286,1.144-4.8,2.544-6.539,3.623
			c-0.517,0.323-0.983,0.581-1.049,0.581c-0.064,0-0.402-0.065-0.757-0.113l-0.644-0.096l-1.61-1.579
			c-2.835-2.755-5.06-4.88-5.913-5.685L-248.495,180.888z M-249.139,181.387l2.271,2.835c1.241,1.563,2.497,3.092,2.771,3.431
			c0.273,0.337,0.499,0.613,0.483,0.628c-0.064,0.048-3.286-0.58-4.993-0.967c-1.755-0.402-2.48-0.596-3.56-0.934l-0.886-0.291
			v-0.224c0.015-1.08,1.385-2.69,3.705-4.334L-249.139,181.387z M-229.842,185.253c0.065,0,0.144,0.145,0.338,0.58
			c0.548,1.207,2.255,4.461,2.674,5.09c0.129,0.209,0.355,0.225-1.915-0.145c-5.461-0.886-7.219-1.176-7.219-1.207
			c0-0.017,0.161-0.13,0.371-0.243c1.692-0.934,3.4-2.125,4.914-3.398c0.371-0.305,0.709-0.596,0.774-0.644
			C-229.89,185.253-229.857,185.236-229.842,185.253z"/>
		
			<radialGradient id="SVGID_3_" cx="-7420.8076" cy="-12248.8457" r="39.4477" gradientTransform="matrix(-0.114 -0.0171 0.0346 -0.228 -646.4666 -2709.0471)" gradientUnits="userSpaceOnUse">
			<stop  offset="0" style="stop-color:#EE352C"/>
			<stop  offset="1" style="stop-color:#A91D22"/>
		</radialGradient>
		<path fill="url(#SVGID_3_)" d="M-255.76,183.948c0,0-0.354,0.565-0.015,1.402c0.209,0.516,0.821,1.142,1.514,1.788
			c0,0,7.168,6.99,8.038,7.989c3.962,4.574,5.685,9.084,5.846,15.301c0.098,3.995-0.661,7.506-2.545,11.582
			c-3.351,7.312-10.422,15.381-21.326,24.337l1.595-0.531c1.031-0.774,2.433-1.594,5.719-3.399
			c7.585-4.155,16.122-7.973,26.593-11.902c15.074-5.671,39.866-12.307,53.974-14.464l1.466-0.226l-0.227-0.354
			c-1.287-1.998-2.173-3.238-3.235-4.558c-3.093-3.834-6.846-6.942-11.437-9.519c-6.314-3.527-14.48-6.282-24.819-8.327
			c-1.948-0.386-6.235-1.128-9.714-1.659c-7.377-1.144-12.143-1.933-17.394-2.835c-1.885-0.322-4.704-0.805-6.572-1.207
			c-0.966-0.21-2.818-0.644-4.268-1.143C-253.729,185.768-255.405,185.317-255.76,183.948L-255.76,183.948z M-251.603,187.975
			c0.015-0.015,0.273,0.081,0.611,0.193c0.613,0.209,1.402,0.451,2.336,0.709c0.708,0.195,1.416,0.383,2.126,0.564
			c0.966,0.241,1.771,0.467,1.788,0.467c0.112,0.113,1.739,5.315,2.289,7.313c0.209,0.757,0.371,1.4,0.354,1.4
			c-0.017,0.017-0.192-0.257-0.402-0.627c-1.886-3.319-4.866-6.685-8.313-9.391C-251.265,188.281-251.603,187.99-251.603,187.975z
			 M-243.679,190.166c0.08,0,0.436,0.048,0.87,0.144c2.739,0.613,7.649,1.546,10.792,2.078c0.532,0.081,0.951,0.177,0.951,0.209
			c0,0.033-0.194,0.145-0.436,0.274c-0.53,0.274-2.674,1.546-3.383,2.029c-1.787,1.192-3.397,2.481-4.558,3.64
			c-0.465,0.468-0.868,0.854-0.868,0.854s-0.096-0.274-0.178-0.612c-0.578-2.239-1.787-5.556-2.882-7.892
			c-0.178-0.371-0.323-0.709-0.323-0.741C-243.695,190.181-243.695,190.166-243.679,190.166L-243.679,190.166z M-229.729,192.823
			c0.096,0.033,0.257,0.579,0.58,1.788c0.596,2.335,0.868,4.945,0.772,7.377c-0.033,0.676-0.063,1.304-0.098,1.385l-0.048,0.161
			l-0.836-0.275c-1.725-0.547-4.528-1.369-6.927-2.046c-1.37-0.37-2.48-0.709-2.48-0.741c0-0.096,1.996-2.094,2.851-2.851
			C-234.289,196.189-229.875,192.775-229.729,192.823L-229.729,192.823z M-228.618,192.984c0.048-0.048,6.669,1.095,9.68,1.675
			c2.24,0.435,5.494,1.111,5.688,1.193c0.096,0.032-0.244,0.225-1.322,0.708c-4.253,1.917-7.409,3.64-10.55,5.734
			c-0.822,0.548-1.514,0.999-1.531,0.999c-0.017,0-0.031-0.467-0.031-1.031c0-3.061-0.613-6.153-1.74-8.762
			C-228.536,193.241-228.635,193-228.618,192.984z M-211.497,196.367c0.048,0.048-0.161,1.352-0.354,2.125
			c-0.582,2.4-2.144,5.96-4.059,9.31c-0.338,0.596-0.645,1.08-0.676,1.096c-0.031,0.015-0.467-0.226-0.966-0.517
			c-1.869-1.094-3.995-2.125-6.314-3.092c-0.644-0.274-1.208-0.499-1.225-0.531c-0.113-0.097,5.075-3.527,7.814-5.17
			c2.173-1.321,5.715-3.286,5.78-3.222V196.367z M-210.271,196.56c0.144,0,3.076,0.806,4.605,1.256
			c3.784,1.128,8.133,2.722,10.969,4.011l1.177,0.531l-0.822,0.193c-6.927,1.594-12.853,3.432-18.572,5.751
			c-0.467,0.192-0.884,0.354-0.918,0.354c-0.031,0,0.13-0.372,0.338-0.822c1.723-3.657,2.835-7.474,3.11-10.728
			C-210.367,196.801-210.319,196.56-210.271,196.56L-210.271,196.56z M-239.458,203.26c0.05-0.048,2.286,0.483,3.494,0.822
			c1.836,0.515,5.736,1.82,5.736,1.916c0,0.016-0.434,0.387-0.951,0.838c-2.109,1.756-4.14,3.608-6.572,5.96
			c-0.726,0.693-1.335,1.256-1.37,1.256c-0.031,0-0.048-0.096-0.031-0.226c0.369-2.706,0.29-6.185-0.227-9.712
			C-239.426,203.662-239.474,203.276-239.458,203.26z M-192.41,203.308c0.033,0.033-1.031,1.708-1.706,2.658
			c-0.966,1.385-2.386,3.222-5.592,7.249c-1.689,2.126-3.592,4.527-4.219,5.332c-0.644,0.805-1.176,1.481-1.191,1.481
			c-0.017,0-0.227-0.289-0.453-0.644c-1.804-2.707-3.961-5.073-6.522-7.2c-0.484-0.403-1.014-0.838-1.193-0.967
			c-0.177-0.129-0.321-0.257-0.321-0.274c0-0.048,2.739-1.225,4.816-2.061c3.64-1.482,8.6-3.253,12.321-4.397
			C-194.519,203.872-192.441,203.276-192.41,203.308L-192.41,203.308z M-191.169,203.631c0.063-0.016,0.45,0.178,0.918,0.451
			c3.915,2.238,7.747,5.121,10.777,8.085c0.853,0.838,2.962,3.029,2.931,3.045c0,0-0.743,0.064-1.612,0.13
			c-6.781,0.516-15.462,1.949-23.807,3.962c-0.565,0.129-1.062,0.241-1.095,0.241s0.596-0.628,1.385-1.385
			c4.897-4.719,7.136-7.699,9.778-13.015C-191.524,204.356-191.202,203.68-191.169,203.631
			C-191.185,203.631-191.185,203.631-191.169,203.631L-191.169,203.631z M-227.039,207.303c0.225,0.048,2.32,1.032,3.898,1.82
			c1.45,0.724,3.625,1.884,3.738,1.981c0.014,0.016-0.757,0.419-1.709,0.886c-3.028,1.514-5.619,2.947-8.327,4.59
			c-0.772,0.467-1.418,0.854-1.431,0.854c-0.065,0-0.05-0.065,0.386-0.854c1.449-2.642,2.609-5.799,3.268-8.876
			C-227.153,207.464-227.087,207.303-227.039,207.303L-227.039,207.303z M-229.133,207.69c0.048,0.048-0.499,2.029-0.838,3.109
			c-0.661,2.046-1.771,4.606-2.851,6.539c-0.259,0.451-0.645,1.111-0.855,1.481l-0.402,0.645l-0.903-0.87
			c-1.047-1.015-1.9-1.643-2.997-2.207c-0.434-0.226-0.772-0.419-0.772-0.451c0-0.13,2.755-2.626,4.864-4.429
			C-232.372,210.202-229.181,207.642-229.133,207.69L-229.133,207.69z M-216.328,212.956l0.789,0.516
			c1.802,1.176,3.929,2.738,5.557,4.107c0.918,0.757,2.689,2.352,3.045,2.739l0.192,0.209l-1.304,0.371
			c-7.377,2.046-13.08,3.866-19.73,6.314c-0.743,0.274-1.37,0.499-1.418,0.499c-0.096,0-0.178,0.081,1.481-1.45
			c4.251-3.914,8.02-8.23,10.825-12.434L-216.328,212.956L-216.328,212.956z M-219.695,213.794c0.033,0.032-2.175,3.141-3.496,4.896
			c-1.577,2.094-4.38,5.605-6.312,7.892c-0.805,0.951-1.498,1.74-1.529,1.757c-0.05,0.015-0.065-0.226-0.065-0.597
			c0-1.948-0.499-4.026-1.37-5.798c-0.369-0.741-0.434-0.918-0.354-0.998c0.306-0.275,4.994-2.948,7.957-4.542
			C-222.869,215.341-219.743,213.762-219.695,213.794L-219.695,213.794z M-240.056,218.787c0.051,0,0.42,0.194,0.839,0.42
			c1.031,0.563,1.948,1.192,2.77,1.868c0.031,0.033-0.386,0.37-0.934,0.772c-1.531,1.096-3.85,2.852-5.202,3.93
			c-1.419,1.128-1.467,1.159-1.306,0.918c1.062-1.626,1.596-2.544,2.159-3.721c0.499-1.046,0.999-2.287,1.352-3.366
			C-240.248,219.142-240.086,218.787-240.056,218.787L-240.056,218.787z M-234.625,223.039c0.079-0.016,0.175,0.13,0.611,0.773
			c0.918,1.37,1.627,3.205,1.804,4.688l0.034,0.322l-2.209,0.854c-3.946,1.529-7.584,3.045-10.051,4.171
			c-0.693,0.322-1.901,0.902-2.69,1.289c-0.789,0.402-1.433,0.709-1.433,0.692c0-0.015,0.499-0.385,1.111-0.838
			c4.818-3.494,8.988-7.328,12.113-11.161c0.336-0.404,0.644-0.774,0.676-0.789L-234.625,223.039L-234.625,223.039z
			 M-237.121,223.652c0.062,0.064-1.773,2.142-3.031,3.414c-3.106,3.174-6.185,5.655-10.002,8.071
			c-0.483,0.306-0.917,0.579-0.965,0.611c-0.113,0.065,0.032-0.096,1.707-1.916c1.063-1.143,1.868-2.11,2.787-3.302
			c0.611-0.789,0.724-0.901,1.61-1.53C-242.647,227.291-237.186,223.587-237.121,223.652z"/>
	</g>
	<path fill="#FFFFFF" d="M24.841,82.473c-0.169,0-0.338,0.016-0.506,0.016c-3.415,0.182-5.718,1.685-7.064,4.619
		c-1.152,2.654-1.026,6.124,0.013,8.795c1.208,2.609,3.161,3.986,6.419,4.507c0.689,0.112,1.151,0.491,2.487,2.05l1.643,1.925h2.979
		l-1.981-1.998c-1.095-1.094-1.98-2.048-1.98-2.132s0.418-0.268,0.925-0.422c1.672-0.506,3.061-1.798,4.032-3.777
		c0.786-1.59,0.899-2.081,1.012-4.059c0.294-5.887-2.809-9.567-7.978-9.526V82.473L24.841,82.473z M27.454,97.868
		c-1.45,0.701-3.555,0.842-4.929,0.337c-1.42-0.521-2.796-1.997-3.415-3.667c-0.688-1.826-0.589-5.196,0.197-6.714
		c1.264-2.416,2.936-3.526,5.379-3.526c3.624,0,5.686,2.22,5.955,6.391c0.212,3.481-0.953,6.095-3.186,7.177L27.454,97.868z
		 M78.929,87.501c-1.249,0-2.207,0.506-2.851,1.503l-0.506,0.788V87.74h-2.164v12.306h2.162v-3.933c0-3.597,0.045-4.018,0.548-5.002
		c0.692-1.35,1.885-2.022,3.036-1.701l0.773,0.227v-2.133h-0.999V87.501L78.929,87.501z M66.221,87.388
		c-0.424,0-0.873,0.057-1.32,0.155c-2.895,0.757-4.527,3.527-4.427,6.378c0,2.387,0.464,3.58,1.616,4.832
		c2.36,1.937,4.493,2.09,7.373,1.052c0.492-0.21,1.027-0.451,1.027-0.451v-1.936l-1.027,0.532c-2.33,1.015-4.086,1.015-5.492-0.182
		c-0.896-0.913-1.292-2.008-1.473-3.258h8.722v-1.66c0-3.382-2.036-5.518-5.001-5.463H66.221L66.221,87.388z M62.693,92.784
		c0,0,0.322-2.11,1.517-2.938c0.576-0.405,1.236-0.602,1.881-0.602c0.648,0,1.295,0.209,1.827,0.616
		c1.096,0.842,1.279,2.907,1.279,2.907h-6.504V92.784L62.693,92.784L62.693,92.784z M10.543,90.564
		c-2.345-1.421-3.385-2.444-3.259-3.653c0.364-3.342,4.494-2.88,6.781-1.615l0.017-2.249c0,0-1.265-0.547-3.077-0.577
		c-2.78-0.041-4.578,0.87-5.42,2.726c-1.237,2.739-0.142,4.804,3.817,7.107c2.223,1.293,3.205,2.416,3.205,3.64
		c0,2.528-3.049,3.411-6.194,1.825c-0.648-0.322-1.195-0.591-1.224-0.591c-0.113,0.716-0.055,2.432-0.055,2.432
		s0.966,0.405,2.416,0.687c3.595,0.716,6.866-0.97,7.175-3.708c0.269-2.571-0.661-3.919-4.183-6.024L10.543,90.564L10.543,90.564z
		 M98.073,87.359c-0.422,0-0.869,0.058-1.337,0.156c-2.891,0.757-4.52,3.527-4.409,6.378c0,2.384,0.463,3.566,1.614,4.816
		c2.36,1.937,4.495,2.094,7.39,1.053c0.488-0.209,1.021-0.447,1.021-0.447v-1.939l-1.024,0.534
		c-2.335,1.012-4.091,1.012-5.492-0.183c-0.902-0.911-1.293-1.994-1.476-3.259h8.708V92.81c0-3.366-2.036-5.504-5-5.447
		L98.073,87.359L98.073,87.359z M94.546,92.755c0,0,0.325-2.107,1.52-2.95c0.573-0.408,1.233-0.604,1.88-0.604
		c0.644,0,1.293,0.209,1.826,0.618c1.096,0.843,1.278,2.922,1.278,2.922h-6.503L94.546,92.755L94.546,92.755z M54.896,90.592
		c-2.345-1.418-3.382-2.444-3.257-3.653c0.364-3.344,4.494-2.88,6.781-1.615l0.016-2.249c0,0-1.264-0.547-3.077-0.573
		c-2.78-0.042-4.578,0.87-5.421,2.726c-1.235,2.737-0.125,4.803,3.821,7.105c2.219,1.292,3.202,2.401,3.202,3.625
		c0,2.528-3.047,3.427-6.193,1.825c-0.645-0.322-1.191-0.589-1.224-0.589c-0.113,0.717-0.055,2.433-0.055,2.433
		s0.956,0.392,2.4,0.687c3.598,0.719,6.872-0.967,7.179-3.705c0.268-2.558-0.66-3.906-4.172-6.014V90.592L54.896,90.592z
		 M110.783,87.472c-1.25,0-2.217,0.508-2.852,1.505l-0.505,0.786v-2.05h-2.163v12.304h2.161v-3.935c0-3.595,0.043-4.017,0.548-4.999
		c0.692-1.348,1.884-2.023,3.036-1.7l0.773,0.227v-2.138H110.783L110.783,87.472z M37.695,90.521v-7.838h-2.181v17.361h9.171v-2.052
		h-6.99V90.521L37.695,90.521z M88.129,92.964l-1.797,4.678l-1.729-4.704l-1.757-5.212h-2.231c1.446,4.102,3.02,8.273,4.606,12.318
		c0.688,0.015,1.378,0,2.065,0l2.427-6.096l2.472-6.22h-2.134C90.052,87.729,89.109,90.198,88.129,92.964L88.129,92.964
		L88.129,92.964z M42.72,77.952c0.351,0,0.644-0.112,0.886-0.354c0.239-0.239,0.364-0.519,0.364-0.87s-0.125-0.645-0.364-0.87
		c-0.242-0.226-0.52-0.338-0.87-0.338c-0.354,0-0.647,0.112-0.886,0.351c-0.241,0.239-0.352,0.532-0.352,0.869
		c0,0.355,0.113,0.648,0.352,0.871c0.226,0.225,0.519,0.338,0.87,0.338V77.952z M41.946,75.955c0.209-0.209,0.464-0.307,0.79-0.307
		c0.306,0,0.561,0.098,0.773,0.307c0.209,0.21,0.322,0.465,0.322,0.773c0,0.31-0.113,0.576-0.322,0.785
		c-0.212,0.21-0.467,0.31-0.773,0.31c-0.311,0-0.564-0.097-0.773-0.31c-0.208-0.209-0.322-0.477-0.322-0.785
		S41.737,76.165,41.946,75.955z M42.467,76.841h0.142c0.1,0,0.198,0.098,0.282,0.28l0.169,0.38h0.265l-0.209-0.421
		c-0.085-0.169-0.169-0.268-0.267-0.295c0.124-0.03,0.222-0.072,0.293-0.155c0.071-0.072,0.096-0.171,0.096-0.282
		c0-0.128-0.04-0.226-0.125-0.296c-0.097-0.081-0.251-0.124-0.451-0.124h-0.448v1.573h0.225v-0.66H42.467L42.467,76.841z
		 M42.467,76.11h0.196c0.143,0,0.242,0.028,0.297,0.07c0.053,0.041,0.067,0.098,0.067,0.196c0,0.182-0.112,0.268-0.322,0.268h-0.242
		V76.11H42.467L42.467,76.11z M6.442,76.701c0-0.548-0.016-0.955-0.029-1.195h0.013c0.057,0.283,0.125,0.495,0.182,0.634
		l2.094,4.678h0.351l2.094-4.719c0.057-0.129,0.112-0.322,0.182-0.592h0.016c-0.042,0.468-0.057,0.873-0.057,1.197v4.128h0.717
		v-6.137h-0.899l-1.925,4.269c-0.071,0.169-0.169,0.423-0.294,0.757H8.858c-0.042-0.165-0.141-0.419-0.28-0.728l-1.881-4.312H5.741
		v6.136h0.689v-4.113L6.442,76.701L6.442,76.701z M13.576,76.712h0.619v3.822h-0.619V76.712z M13.885,75.311
		c0.129,0,0.238-0.044,0.322-0.128c0.085-0.085,0.142-0.194,0.142-0.322c0-0.127-0.042-0.238-0.141-0.323
		c-0.087-0.084-0.198-0.128-0.325-0.128c-0.125,0-0.238,0.044-0.322,0.128c-0.085,0.085-0.142,0.196-0.142,0.323
		c0,0.14,0.043,0.237,0.142,0.322c0.097,0.084,0.196,0.128,0.322,0.128H13.885L13.885,75.311z M18.604,80.618v-0.674
		c-0.338,0.254-0.702,0.38-1.079,0.38c-0.451,0-0.817-0.155-1.084-0.451c-0.265-0.294-0.407-0.7-0.407-1.209
		c0-0.531,0.142-0.954,0.435-1.275c0.282-0.309,0.647-0.464,1.095-0.464c0.366,0,0.717,0.113,1.041,0.338v-0.716
		c-0.294-0.154-0.631-0.227-1.011-0.227c-0.703,0-1.25,0.227-1.659,0.661c-0.406,0.435-0.616,1.026-0.616,1.74
		c0,0.634,0.182,1.167,0.561,1.575c0.395,0.419,0.899,0.632,1.518,0.632C17.875,80.914,18.266,80.814,18.604,80.618L18.604,80.618z
		 M20.375,78.581c0-0.504,0.113-0.912,0.322-1.192c0.196-0.253,0.435-0.38,0.717-0.38c0.238,0,0.408,0.044,0.531,0.142v-0.73
		c-0.096-0.043-0.237-0.058-0.418-0.058c-0.253,0-0.479,0.086-0.676,0.241c-0.209,0.167-0.377,0.419-0.476,0.741h-0.016v-0.896
		h-0.701v4.381h0.703v-2.248H20.375z M24.406,80.916c0.66,0,1.192-0.213,1.586-0.635c0.393-0.419,0.589-0.982,0.589-1.685
		c0-0.716-0.18-1.265-0.548-1.672c-0.363-0.408-0.87-0.604-1.53-0.604c-0.661,0-1.192,0.196-1.586,0.577
		c-0.422,0.419-0.645,1.011-0.645,1.769c0,0.66,0.181,1.208,0.561,1.615c0.393,0.422,0.913,0.633,1.572,0.633V80.916L24.406,80.916z
		 M23.408,77.347c0.267-0.281,0.619-0.422,1.053-0.422c0.451,0,0.79,0.141,1.041,0.422c0.253,0.295,0.379,0.716,0.379,1.277
		c0,0.535-0.113,0.955-0.352,1.237c-0.238,0.295-0.589,0.451-1.054,0.451c-0.451,0-0.8-0.156-1.067-0.451
		c-0.266-0.296-0.393-0.702-0.393-1.237C22.987,78.092,23.127,77.658,23.408,77.347L23.408,77.347z M29.657,80.534
		c0.267-0.237,0.409-0.531,0.409-0.899c0-0.321-0.112-0.589-0.322-0.8c-0.17-0.169-0.435-0.321-0.816-0.477
		c-0.338-0.142-0.548-0.268-0.661-0.366c-0.113-0.111-0.182-0.252-0.182-0.451c0-0.182,0.071-0.321,0.209-0.434
		c0.141-0.113,0.322-0.168,0.563-0.168c0.378,0,0.702,0.1,0.999,0.311v-0.702c-0.283-0.142-0.591-0.209-0.942-0.209
		c-0.451,0-0.831,0.123-1.111,0.364c-0.295,0.238-0.435,0.547-0.435,0.911c0,0.322,0.096,0.59,0.279,0.786
		c0.155,0.168,0.419,0.338,0.787,0.491c0.351,0.154,0.589,0.295,0.717,0.407c0.125,0.112,0.182,0.253,0.182,0.42
		c0,0.408-0.28,0.619-0.828,0.619c-0.422,0-0.801-0.139-1.139-0.418v0.756c0.306,0.184,0.673,0.268,1.08,0.268
		c0.52-0.027,0.927-0.154,1.208-0.407L29.657,80.534L29.657,80.534z M33.001,76.32c-0.66,0-1.192,0.196-1.586,0.577
		c-0.419,0.419-0.644,1.011-0.644,1.769c0,0.661,0.182,1.208,0.56,1.616c0.395,0.421,0.913,0.633,1.574,0.633
		c0.676,0,1.191-0.213,1.586-0.635c0.394-0.419,0.59-0.983,0.59-1.685c0-0.718-0.183-1.265-0.547-1.673
		c-0.38-0.407-0.886-0.604-1.53-0.604L33.001,76.32L33.001,76.32z M34.364,78.624c0,0.535-0.113,0.955-0.352,1.237
		c-0.238,0.295-0.589,0.451-1.054,0.451c-0.451,0-0.8-0.156-1.067-0.451c-0.266-0.296-0.393-0.702-0.393-1.237
		c0-0.563,0.14-0.998,0.422-1.292c0.266-0.279,0.617-0.421,1.054-0.421c0.435,0,0.785,0.142,1.037,0.421
		c0.226,0.31,0.351,0.73,0.351,1.292H34.364L34.364,78.624z M36.261,80.816h0.701v-3.794h1.026v-0.589h-1.026v-0.677
		c0-0.615,0.238-0.924,0.731-0.924c0.166,0,0.335,0.041,0.46,0.112v-0.633c-0.125-0.056-0.294-0.068-0.505-0.068
		c-0.378,0-0.688,0.112-0.94,0.351c-0.295,0.279-0.452,0.644-0.452,1.137v0.719h-0.741v0.589h0.741v3.779L36.261,80.816z
		 M39.139,79.621c0,0.857,0.379,1.293,1.152,1.293c0.28,0,0.491-0.044,0.66-0.144v-0.604c-0.129,0.098-0.282,0.143-0.451,0.143
		c-0.238,0-0.406-0.057-0.504-0.185c-0.1-0.125-0.156-0.338-0.156-0.632v-2.472h1.111v-0.59H39.84v-1.291
		c-0.242,0.083-0.479,0.154-0.703,0.225v1.066H38.38v0.59h0.757v2.599L39.139,79.621z M114.521,87.697
		c-0.238-0.226-0.521-0.339-0.87-0.339c-0.354,0-0.648,0.113-0.886,0.354c-0.238,0.236-0.352,0.531-0.352,0.871
		c0,0.351,0.113,0.644,0.351,0.869c0.237,0.225,0.53,0.338,0.885,0.338c0.35,0,0.645-0.113,0.886-0.351
		c0.237-0.241,0.363-0.521,0.363-0.87c-0.013-0.354-0.141-0.648-0.38-0.873H114.521z M114.407,89.355
		c-0.209,0.21-0.464,0.308-0.773,0.308c-0.306,0-0.561-0.098-0.773-0.308c-0.209-0.212-0.32-0.478-0.32-0.788
		c0-0.306,0.096-0.561,0.309-0.773c0.208-0.21,0.462-0.306,0.785-0.306c0.306,0,0.561,0.096,0.773,0.306
		c0.21,0.213,0.322,0.468,0.322,0.773C114.729,88.893,114.634,89.144,114.407,89.355z M113.775,88.64
		c0.126-0.03,0.227-0.086,0.295-0.154c0.071-0.073,0.097-0.172,0.097-0.283c0-0.126-0.039-0.227-0.125-0.295
		c-0.097-0.081-0.253-0.124-0.451-0.124h-0.448v1.571h0.227v-0.66h0.14c0.097,0,0.193,0.097,0.28,0.279l0.167,0.38h0.268
		l-0.209-0.423c-0.072-0.184-0.155-0.268-0.241-0.295L113.775,88.64L113.775,88.64z M113.621,88.498h-0.241v-0.532h0.198
		c0.141,0,0.238,0.026,0.295,0.069c0.056,0.042,0.069,0.097,0.069,0.196C113.942,88.413,113.829,88.498,113.621,88.498
		L113.621,88.498L113.621,88.498z M74.436,76.252h0.196v-1.574h0.52v-0.196h-1.236v0.196h0.521V76.252L74.436,76.252z
		 M75.627,75.069c0-0.153,0-0.278-0.012-0.35c0.013,0.084,0.042,0.141,0.055,0.182l0.604,1.351h0.097l0.605-1.363
		c0.017-0.042,0.029-0.097,0.057-0.169c-0.013,0.141-0.013,0.253-0.013,0.339v1.192h0.209v-1.77h-0.253l-0.548,1.221
		c-0.013,0.044-0.056,0.129-0.083,0.226h-0.017c-0.011-0.057-0.04-0.112-0.081-0.209l-0.547-1.237h-0.283v1.771h0.197v-1.182
		L75.627,75.069L75.627,75.069z"/>
</g>
</svg>
